<svg xmlns="http://www.w3.org/2000/svg" viewBox="0 0 105.31 53.01"><defs><style>.cls-1{fill:#0071bc;}.cls-2{fill:#3fa9f5;}</style></defs><g id="Layer_2" data-name="Layer 2"><g id="Layer_1-2" data-name="Layer 1"><path class="cls-1" d="M72.68,43.5H90a1.73,1.73,0,0,1,1.52.91l3.92,7.28a1.47,1.47,0,0,0,1.28.77h4.36a4.26,4.26,0,0,0,3.8-6.13L84.05,3.56a2.59,2.59,0,0,0-4.66,0L65.49,31.26a1.48,1.48,0,0,0,0,1.4l5.9,10.12A1.47,1.47,0,0,0,72.68,43.5Zm4.6-11.91,2.47-4.45a2,2,0,0,1,3.53,0l2.33,4.45a1.73,1.73,0,0,1-1.53,2.54H78.79A1.73,1.73,0,0,1,77.28,31.59Z"/><path class="cls-2" d="M15.15,43.54c4.09.61,19.94,2.11,27.6-9.87A1.47,1.47,0,0,1,44,33l6.6.05a1.4,1.4,0,0,1,1.24.72l6.4,11a1.43,1.43,0,0,1,.06,1.32l-1.92,4.25a1.91,1.91,0,0,0,2.8,2.37l10.51-7a1.44,1.44,0,0,0,.42-2l-8.89-14a.05.05,0,0,1,0-.07c.64-.35,8.41-4.92,6.75-15.76A16.15,16.15,0,0,0,53.09,0H43.93a5.51,5.51,0,0,0-5.51,5.35l-.51,16.48s1,11.1-16.16,12.17a1.45,1.45,0,0,1-1.39-2.1l2.7-5.26a1.45,1.45,0,0,1,2.57,0l1.46,2.83a1.44,1.44,0,0,0,2,.57,15,15,0,0,0,5.69-5.92,1.42,1.42,0,0,0,0-1.21L26,3.64a1.94,1.94,0,0,0-3.5-.08L.49,46.25a4.31,4.31,0,0,0,3.8,6.29l4,0A1.45,1.45,0,0,0,9.6,51.8l4.07-7.52A1.45,1.45,0,0,1,15.15,43.54ZM48.46,11a1.42,1.42,0,0,1,1.39-1.44A8.69,8.69,0,0,1,56.2,12l.09.09a6.59,6.59,0,0,1,.22,8.87,4.12,4.12,0,0,1-.41.43,7.68,7.68,0,0,1-6.71,1.85,1.38,1.38,0,0,1-1.12-1.45c.09-1.89.16-3.83.19-5.83C48.48,14.25,48.48,12.62,48.46,11Z"/></g></g></svg>