<svg xmlns="http://www.w3.org/2000/svg" viewBox="0 0 115.11 115.11"><defs><style>.cls-1{fill:#0071bc;}.cls-2,.cls-3{fill:#fff;stroke:#0071bc;stroke-miterlimit:10;}.cls-2{stroke-width:0.97px;}</style></defs><g id="Layer_2" data-name="Layer 2"><g id="Layer_1-2" data-name="Layer 1"><rect class="cls-1" width="115.11" height="115.11" rx="35"/><path class="cls-2" d="M77.56,73.78H94.88a1.71,1.71,0,0,1,1.51.9L100.32,82a1.45,1.45,0,0,0,1.27.77H106a4.25,4.25,0,0,0,3.8-6.13L88.93,33.84a2.6,2.6,0,0,0-4.67,0L70.36,61.54a1.48,1.48,0,0,0,0,1.4L76.3,73.05A1.46,1.46,0,0,0,77.56,73.78Zm4.59-11.91,2.47-4.45a2,2,0,0,1,3.54,0l2.33,4.45A1.74,1.74,0,0,1,89,64.45h-5.3A1.73,1.73,0,0,1,82.15,61.87Z"/><path class="cls-3" d="M20,73.82C24.11,74.43,40,75.93,47.63,64a1.47,1.47,0,0,1,1.23-.69l6.6,0A1.47,1.47,0,0,1,56.7,64l6.39,11a1.43,1.43,0,0,1,.07,1.32l-1.92,4.25A1.91,1.91,0,0,0,64,83l10.51-7A1.44,1.44,0,0,0,75,74L66.08,60a0,0,0,0,1,0-.07c.64-.36,8.41-4.92,6.76-15.76A16.15,16.15,0,0,0,58,30.28H48.8a5.51,5.51,0,0,0-5.51,5.34l-.5,16.49s1,11.1-16.16,12.17a1.45,1.45,0,0,1-1.4-2.1l2.7-5.27a1.45,1.45,0,0,1,2.57,0L32,59.74a1.44,1.44,0,0,0,2,.57,15,15,0,0,0,5.69-5.92,1.39,1.39,0,0,0,0-1.21L30.87,33.92a1.94,1.94,0,0,0-3.49-.09l-22,42.7a4.32,4.32,0,0,0,3.81,6.29l4,0a1.44,1.44,0,0,0,1.27-.76l4.08-7.52A1.43,1.43,0,0,1,20,73.82ZM53.34,41.3a1.41,1.41,0,0,1,1.39-1.44,8.67,8.67,0,0,1,6.34,2.39l.1.09a6.59,6.59,0,0,1,.22,8.87,5.66,5.66,0,0,1-.42.43,7.65,7.65,0,0,1-6.7,1.85A1.4,1.4,0,0,1,53.14,52c.1-1.89.16-3.83.19-5.84C53.36,44.53,53.36,42.9,53.34,41.3Z"/></g></g></svg>